<svg fill="#000000" version="1.1" id="Capa_1" xmlns="http://www.w3.org/2000/svg" xmlns:xlink="http://www.w3.org/1999/xlink" viewBox="0 0 353.11 353.11" xml:space="preserve"><g id="SVGRepo_bgCarrier" stroke-width="0"></g><g id="SVGRepo_tracerCarrier" stroke-linecap="round" stroke-linejoin="round"></g><g id="SVGRepo_iconCarrier"> <g> <g> <path d="M317.788,329.369c-1.236,0.128-2.496,0.188-3.781,0.188c-19.845,0-35.944-16.088-35.944-35.938 c0-7.003,2.01-13.531,5.48-19.041c5.895-9.384,10.839-14.961,5.736-15.973c-3.021-0.614-6.15-0.919-9.359-0.919 c-4.385,0-8.61,0.64-12.647,1.747v-76.017c2.99-4.348,2.923-10.087-0.134-14.315c-0.243-1.103-1.035-1.958-2.119-2.274 c-12.403-11.076-24.569-20.246-36.425-27.928v-3.824c0.73,0.32,1.229,0.557,1.425,0.648c6.113,3.13,13.597,0.694,16.745-5.398 c3.154-6.123,0.736-13.649-5.383-16.8c-1.827-0.935-28.431-14.142-67.931-8.442V12.471C173.451,5.587,167.864,0,160.98,0 S148.51,5.587,148.51,12.471v94.074c-51.858-8.708-86.938,8.653-89.294,9.858c-1.397,0.715-2.57,1.687-3.553,2.786 c-1.671,0.055-3.02,1.416-3.02,3.1v3.346c-0.167,1.154-0.155,2.32,0,3.501v76.154c-10.157,1.51-17.975,10.193-17.975,20.776 c0,11.643,9.447,21.093,21.093,21.093c11.648,0,21.102-9.45,21.102-21.093c0-10.583-7.828-19.267-17.984-20.776v-66.929 c3.498,1.948,7.864,2.183,11.709,0.244c1.367-0.685,15.765-7.618,39.065-9.241c-10.275,6.424-20.876,14.325-31.676,23.995 c-5.13,4.588-5.569,12.477-0.971,17.61c1.702,1.906,3.873,3.118,6.171,3.705v84.804c-0.78,1.108-1.513,2.576-2.156,4.549 c-2.926,8.963-5.294,16.24-5.294,16.24H58.64c-9.438,0-10.89,4.499-3.254,10.041c7.626,5.547,13.819,10.047,13.819,10.047 l-5.276,16.258c-2.917,8.963,0.911,11.746,8.543,6.199c7.639-5.554,13.822-10.041,13.822-10.041l13.825,10.041 c7.639,5.547,11.46,2.764,8.543-6.199c-2.914-8.976-5.282-16.258-5.282-16.258l13.829-10.047 c7.633-5.554,6.168-10.041-3.261-10.041c-9.444,0-17.089,0-17.089,0l-5.282-16.24c-0.643-1.979-1.385-3.453-2.165-4.561v-84.792 c1.872-0.484,3.663-1.361,5.2-2.74c23.011-20.59,44.609-31.956,63.525-37.829c19.348,5.042,41.053,14.416,64.247,30.623v54.264 c-0.049,0.098-0.122,0.158-0.159,0.256c-3.482-1.097-7.301-1.23-11.076-0.171c-6.345,1.802-11.039,6.576-13.012,12.392 c-5.688,1.741-8.964,7.703-7.325,13.457c1.625,5.742,7.544,9.104,13.298,7.605c4.731,3.909,11.235,5.517,17.58,3.714 c2.765-0.779,5.2-2.155,7.246-3.909c4.067,4.165,10.218,6.016,16.203,4.323c8.701-2.472,13.762-11.545,11.283-20.24 c-1.681-5.931-6.431-10.175-12.038-11.478c0.066-1.249-0.073-2.516-0.421-3.781c-1.76-6.211-8.22-9.816-14.437-8.051 c-0.323,0.098-0.604,0.256-0.907,0.378v-44.223c6.606,4.92,13.311,10.33,20.118,16.426c2.381,2.131,5.347,3.179,8.312,3.179 c1.364,0,2.71-0.287,4.013-0.725v73.447c-16.952,7.318-28.826,24.168-28.826,43.805c0,26.348,21.361,47.715,47.703,47.715 c10.485,0,20.167-3.385,28.034-9.109C317.143,337.327,319.858,329.137,317.788,329.369z M222.371,134.975 c-2.223-1.357-4.457-2.716-6.661-3.964c2.533,0.572,4.768,1.185,6.661,1.784V134.975z"></path> </g> </g> </g></svg>